<svg xmlns="http://www.w3.org/2000/svg" width="4096" height="4096"><defs><linearGradient id="prefix__a" gradientUnits="userSpaceOnUse" x1="866.488" y1="2009.115" x2="1083.68" y2="2022.92"><stop offset="0" stop-color="#FFF"/><stop offset="1" stop-color="#FFF"/></linearGradient></defs><path fill="url(#prefix__a)" d="M988.691 1664.69l2.487.75c5.899 7.85 3.958 78.96 4.046 94.79l1.145 294.43c-.325 121.33-22.462 233.13 86.611 313.95-4.6 18.62-84.982-8.73-99.117-14.74-70.523-34.58-112.347-89.93-113.878-169.58-2.329-121.21-1.837-245.78 1.414-366.96 2.03-75.65 49.626-125.77 117.292-152.64z"/><path fill="#FFF" d="M1166.1 1784.88c149.99-10.56 273.93 67.84 315.52 214.7a299.71 299.71 0 01-28.94 228.59 284.254 284.254 0 01-170.2 132.54c-49.74 13.53-129.19 17.18-174.88-10.82-42.29-25.92-65.14-67.78-77.46-114.1 15.5 9.04 30.41 19.27 45.35 29.22 149 90.99 326.86 9.88 346.49-165.72 14.59-130.49-75.48-237.05-205.17-247.7-79.2-6.5-132.41 20.63-191.43 70.55-1.39-25.29-1.3-60.64-.33-85.82 43.77-36.11 86.45-43.17 141.05-51.44zM1934.75 1973.82c7.24-5.34 74.19-4.67 82.87-.01 2.73 5.75 1.94 8.79 1.56 15.14l-.48 125.68c-.15 36.03-1.85 68.85 5.11 104.35 19.38 98.83 155.3 95.68 175.97.25 7.24-33.43 4.83-73.09 4.75-107.45l-.43-140.1c27.22-.15 54.43-.01 81.65.44.39 11.73.29 26.8-.23 38.5-3.39 75.42 8.26 165.24-9.68 237.86-36.89 149.31-278.48 150.9-328.49 9.81-16.19-45.68-12.28-102.36-12.33-150.84l-.27-133.63z"/><defs><linearGradient id="prefix__b" gradientUnits="userSpaceOnUse" x1="1980.825" y1="1978.645" x2="1972.902" y2="2149.249"><stop offset="0" stop-color="#FFF"/><stop offset="1" stop-color="#FFF"/></linearGradient></defs><path fill="url(#prefix__b)" d="M1934.75 1973.82c7.24-5.34 74.19-4.67 82.87-.01 2.73 5.75 1.94 8.79 1.56 15.14-7.3 49.53-3.8 103.82-3.36 154.23l-16.09 11.62c-20.47-3.34-38.77-.62-55.16-3.8-7.52-7.74-6.61-26.78-6.98-37.14-1.61-44.75 5.58-96.41-2.84-140.04z"/><path fill="#FFF" d="M3081.85 1966.83c29.04-6.11 118.28 9.61 142.06 26.89 2.4 11.74-13.28 50.65-17.99 63.93-43.72-21.81-122.18-40.92-168.49-8.44-5.97 4.18-17.85 24.71-15.79 32.18 14.56 52.72 107.1 48.38 148.56 68.16 19.1 6.71 34.37 15.09 49.49 28.92 39.56 36.15 30.24 108.37-6.79 143.45-35.15 33.31-93.47 42.54-140.83 41.46-55.43-7.65-86.33-14.9-134.86-43.67 9.49-18.17 18.75-40.13 27.56-59.08 46.71 21.42 145.87 62.23 189.2 13.53 41.55-45.98-46.01-67.52-76.85-75.23-53.12-13.28-132.96-32.55-136.59-101.13-4.76-90.06 60.42-126.38 141.32-130.97zM2540.24 1964.74c64.47-4.12 132.64 13.93 174.47 66.08a4836.104 4836.104 0 00-53.59 46.52c-81.41-81.31-212.13-37.23-221.92 78.82-7.55 89.52 86.88 162.91 170.74 126.69 20.52-8.87 33.11-18.63 49.82-33.5l3.17-.46c9.78 3.36 42 36.22 48.89 47.06-.33 4.04-.28 7.2-3.71 10.33-75.98 69.32-192.49 74.6-274.16 15.21a187.895 187.895 0 01-76.69-126.58c-18.89-127.58 59.8-212.65 182.98-230.17zM1615.42 1972.62c22.73-1.38 58.27-.42 81.42.14l-.24 200.69c-.05 15.77-2.6 105.41 3.12 114.65 21-2.79 184.05-3.48 193.71 3.1-.74 19.94-.34 43.3-.48 63.5-11.89.41-24.92-.02-36.88-.1-80.14-.54-161.17 2.73-241.21.57-1.84-23.45-.72-52.68-.48-76.74 1.02-101.59-1.65-204.34 1.04-305.81z"/><path fill="#FFF" d="M1699.72 2288.1c21-2.79 184.05-3.48 193.71 3.1-24.23 5.25-61.83-.29-87.4 1.52-37.01 2.62-69.86 6.47-106.31-4.62zM2780.6 1972.3c28.19-.27 56.39-.12 84.57.45 1.73 38.37-.05 91.28-.21 130.35l-.58 249.13c-8.86 3.84-68.25 2.42-83.02 2.56-2.55-18.04-1.16-112.14-.84-134.05 1.21-82.24-1.33-166.61.08-248.44z"/><defs><linearGradient id="prefix__c" gradientUnits="userSpaceOnUse" x1="1114.608" y1="1894.172" x2="1224.052" y2="2005.656"><stop offset="0" stop-color="#FFF"/><stop offset="1" stop-color="#FFF"/></linearGradient></defs><path fill="url(#prefix__c)" d="M1187.49 1878.7c12.05-1.19 20.54-3.38 31.05 2.72 14.12 18.77 30.78 98.59 35.93 124.35-12.69-2.98-34.04-11.18-47.47-15.27-20.53-6.25-34.65-9.29-55.52-13.27-30.55-4.69-72.5-12.97-100.94-23.75 2.81-4.82 5.93-9.46 9.35-13.88 27.23-34.94 85.12-55.54 127.6-60.9z"/><defs><linearGradient id="prefix__d" gradientUnits="userSpaceOnUse" x1="1394.6" y1="2111.579" x2="1307.122" y2="2052.343"><stop offset="0" stop-color="#FFF"/><stop offset="1" stop-color="#FFF"/></linearGradient></defs><path fill="url(#prefix__d)" d="M1359.38 1960.59c34.01 50.84 47.6 134.75 22.33 191.62-16.01-.15-118.16-7.77-125.2-14.69 2.52-5.86 3.24-6.08 7.37-10.69 8.62-9.62 15.89-23.86 21.9-35.43 9.55-8.54 13.63-8.83 22.4-19.75-1-9.12-.82-8.7-5.17-16.73 6.45-4.63 4.46-1.64 6.4-9.12 27.52-27.84 37.04-47.74 49.97-85.21z"/><defs><linearGradient id="prefix__e" gradientUnits="userSpaceOnUse" x1="1309.111" y1="2234.266" x2="1208.108" y2="2138.558"><stop offset="0" stop-color="#FFF"/><stop offset="1" stop-color="#FFF"/></linearGradient></defs><path fill="url(#prefix__e)" d="M1172.27 2155.54c9.28.35 21.21 2.66 30.64 3.95 57.08 7.75 112.58 9.21 170.05 8.42-.37.75-.75 1.5-1.13 2.26a179.91 179.91 0 01-46.63 59.53 147.872 147.872 0 01-30.29 21.14c-16.21 8.6-51.02 23.89-69 18.39-13.53-10.62-48.48-94.2-53.64-113.69z"/><path fill="#FFF" d="M1108.53 2090.92c8.77 7.42 85.63 166.82 86.23 180.45-10.56 5.17-42.45-3.57-54.29-6.7-42.44-16.45-70.74-40.32-99.41-75.96 29.71-37.4 42.3-58.85 67.47-97.79zM1030.84 1975.18c16.62-.35 114.84 14.33 120.18 25.49-7.41 13.37-18.67 26.65-27.94 39.16a6874.6 6874.6 0 00-41.89 58.31c-7.74 10.71-43.63 63.66-52.74 65.92l-2.2-2.52c-3.48-14.8.64-172.61 4.59-186.36zM1242.63 1883c40.92 10.7 62.59 25.96 93.68 54.23 3.55 4.27 7.54 7.29 6.22 12.63-7.49 30.34-44.17 63.08-33.12 95.94-1.94 7.48.05 4.49-6.4 9.12 4.35 8.03 4.17 7.61 5.17 16.73-8.77 10.92-12.85 11.21-22.4 19.75 3.16-11.95 1.15-21.94-.57-33.87-14.4-66.71-24.68-108.71-42.58-174.53z"/><path fill="#FFF" d="M1336.31 1937.23c3.55 4.27 7.54 7.29 6.22 12.63-7.49 30.34-44.17 63.08-33.12 95.94-1.94 7.48.05 4.49-6.4 9.12-1.22-1.29-5.34-5.69-5.76-7.21-6.48-23.43 18.04-102.16 39.06-110.48zM1285.21 2057.53c2.26-6.1.79-4.21 5.17-8.52 3.52.94 13.75 17.37 17.8 22.64-8.77 10.92-12.85 11.21-22.4 19.75 3.16-11.95 1.15-21.94-.57-33.87z"/><path fill="#FFF" fill-opacity=".929" d="M1490.22 1495.5c7.13 5.44 5.36 2.09 7.02 9.48-4.6 15.24-36.5 73.09-46.14 90.37-31.85 57.09-63.8 121.79-98.86 176.41l-4.53-1.46c-1.25-4.96-1.35-6.03 1.28-10.98 46.31-87.18 92.58-178.14 141.23-263.82z"/><path fill="#FFF" fill-opacity=".933" d="M1592.22 1663.28c4.62 1.09 2.55-.05 6.05 3.71-.07.73-.06 1.47-.21 2.18-4.09 19.05-152.07 135.02-176.86 150.78l-5.27-.63-2.43-3.14c3.46-7.28 156.44-133.82 178.72-152.9z"/><path fill="#FFF" fill-opacity=".929" d="M1697.69 1797.67l4.35 2.7.09 3.47c-11.3 11.76-197.22 77.4-222.02 83.24l-4.84-2.19-.93-3.6c9.46-12.64 192.93-70.72 223.35-83.62zM1151.76 1508.8c3.63 1.59 3.18 1.65 6.37 4.21 7.44 17.45 28.17 210.38 25.12 226.96l-5.31-3.82c-12.07-27.92-29.25-192.69-26.18-227.35z"/><path fill="#FFF" fill-opacity=".925" d="M1293.45 1564.67l6.86 2.8c4.75 7.47-.58 31.41-2.23 40.66-8.35 46.54-17.91 92.85-26.23 139.4-4.25.36-2.58.53-6.66-1.43-3.29-8.4 23.27-169.96 28.26-181.43z"/></svg>