<?xml version="1.0" encoding="utf-8" ?><svg xmlns="http://www.w3.org/2000/svg" xmlns:xlink="http://www.w3.org/1999/xlink" width="200" height="64" viewBox="0 0 1792 576"><path fill="transparent" d="M0 0L1792 0L1792 576L0 576L0 0Z"/><path fill="#FFFFFF" d="M142.397 63.9088C142.685 57.6737 152.955 52.026 157.908 49.5715C173.091 42.0481 187.138 37.9829 204.195 38.6224C204.726 42.9849 204.568 50.6326 204.607 55.2512L204.659 212.899C204.632 237.503 202.823 288.406 207.451 309.248C212.089 330.249 222.537 349.522 237.601 364.866C280.698 401.293 320.64 395.766 373.929 395.88L473.78 396.126L508.778 396.317C513.078 396.34 526.881 395.212 528.861 398.289L528.884 399.563C527.721 416.954 519.196 441.445 508.116 454.968C503.004 459.851 495.947 467.296 491 471.657C487.483 475.667 483.87 479.592 480.163 483.428C461.68 502.424 443.098 521.324 424.419 540.126C417.2 547.409 403.803 561.702 396.527 567.988L157.198 567.999C118.012 568.005 74.6315 567.09 35.7506 568.086L33.884 566.843C32.3993 563.732 33.0521 525.64 33.0526 519.315L33.0668 418.973L33.1069 259.842C33.0804 232.042 33.0315 204.059 33.0908 176.241C33.0976 173.062 34.4016 172.223 36.3267 169.961C52.2788 155.04 67.8101 138.221 83.5406 122.966C90.1678 116.54 96.6607 109.184 103.597 103.18C116.789 90.5755 129.477 77.138 142.635 64.4011L142.397 63.9088Z"/><path fill="#F3F4F6" d="M142.397 63.9088C142.685 57.6737 152.955 52.026 157.908 49.5715C173.091 42.0481 187.138 37.9829 204.195 38.6224C204.726 42.9849 204.568 50.6326 204.607 55.2512L204.659 212.899C204.632 237.503 202.823 288.406 207.451 309.248C212.089 330.249 222.537 349.522 237.601 364.866C280.698 401.293 320.64 395.766 373.929 395.88L473.78 396.126L508.778 396.317C513.078 396.34 526.881 395.212 528.861 398.289L528.884 399.563C527.721 416.954 519.196 441.445 508.116 454.968C490.777 453.475 450.375 454.54 431.311 454.549L281.631 454.454C274.775 454.446 227.423 454.001 223.396 454.972L222.989 455.438C215.831 453.447 156.019 454.478 145.104 454.535L143.744 454.483C142.033 448.827 142.84 396.048 142.838 386.125L142.88 223.876C142.936 198.255 144.053 167.648 143.16 142.46L143.884 140.204C141.891 127.184 145.838 72.6531 142.635 64.4011L142.397 63.9088Z"/><path fill="#E5E7EB" d="M237.601 364.866C280.698 401.293 320.64 395.766 373.929 395.88L473.78 396.126L508.778 396.317C513.078 396.34 526.881 395.212 528.861 398.289L528.884 399.563L524.655 400.719L520.806 404.68C517.343 421.404 513.221 431.504 504.027 446.097L434.971 446.464C430.523 446.483 408.692 446.805 405.401 446.275C396.051 444.296 337.916 443.817 328.198 444.982C319.216 437.497 324.764 436.253 322.087 427.73C319.781 425.37 319.694 425.908 316.18 425.076C316.306 422.316 318.396 423.173 321.161 419.683C320.429 417.523 320.253 416.749 319.917 414.492C322.305 411.078 324.095 412.253 328.666 409.622L328.761 408.091L326.156 407.51C328.471 407.548 332.33 406.708 334.728 406.272L330.058 404.708C321.756 406.093 292.097 404.787 284.299 401.662L284.311 400.354C288.47 397.363 287.683 398.795 288.815 394.325C278.842 392.438 273.662 390.817 264.395 387.321C256.151 383.251 243.134 372.931 235.372 367.05L237.601 364.866Z"/><path fill="#FFFFFF" d="M909.38 222.659C928.735 222.811 948.09 222.801 967.444 222.627L967.111 315.004C966.943 359.837 960.242 420.676 1024.86 422.176C1055.23 422.881 1081.3 404.768 1087.21 374.383C1091.01 354.87 1089.61 333.136 1089.64 313.021L1089.77 222.829L1147.98 222.698L1147.98 299.823L1147.96 469.446L1094.46 469.407L1094.51 439.038C1093.78 439.796 1093.04 440.55 1092.29 441.301C1069.29 464.488 1046.94 473.287 1014.39 473.79C967.46 474.514 925.635 450.568 914.276 402.518C907.189 372.538 909.167 339.858 909.226 308.947L909.38 222.659Z"/><path fill="#FFFFFF" d="M1675.13 219.216C1709.79 217.61 1745.25 223.838 1775.24 241.878C1769.48 255.584 1760.79 272.012 1754.01 285.564C1722.03 269.643 1698.77 262.994 1662.01 268.018C1636.98 271.439 1614.54 298.537 1644.33 312.353C1666.23 322.505 1702.2 324.741 1726.84 331.227C1738.16 334.104 1748.93 338.843 1758.71 345.252C1768.2 363.885 1777.58 377.628 1776.15 399.741C1772.37 458.002 1712.21 476.354 1663.16 473.681C1632.67 472.859 1592.09 462.544 1567.2 444.192C1574.36 429.588 1581.66 415.048 1589.08 400.574C1616.31 417.476 1646.47 427.278 1678.53 426.501C1694.77 426.107 1721.13 417.083 1718.75 397.829C1715.24 369.393 1656.98 370.243 1635.93 363.114C1619.15 357.432 1606.28 355.032 1592.54 342.805C1567.06 321.015 1567.65 277.429 1589.92 253.309C1612.88 228.437 1642.65 221.302 1675.13 219.216Z"/><path fill="#FFFFFF" d="M653.365 142.868L713.128 142.869L713.043 418.427L877.422 418.286L877.428 469.572L653.326 469.585L653.365 142.868Z"/><path fill="#FFFFFF" d="M1317.86 219.231C1363.72 218.941 1404.51 235.37 1427.14 276.96C1411.83 285.426 1397.2 295.021 1381.8 303.259C1376.31 292.554 1371.44 283.667 1360.85 276.841C1347.11 267.981 1323.25 267.213 1307.74 270.852C1289.08 275.386 1273.01 287.192 1263.09 303.642C1227.87 361.023 1277.25 440.445 1346.25 421.344C1366.75 415.67 1377.12 406.242 1387.81 388.401L1389.14 387.375C1398.02 389.6 1413.39 405.377 1420.71 412.353C1418.83 422.943 1414.02 440.171 1406.76 447.881C1390.53 465.134 1360.7 472.163 1338.11 473.578C1300.83 475.911 1263.37 466.521 1235.12 441.409C1209.6 418.73 1196.05 388.271 1194.06 354.44C1191.72 320.096 1203.26 286.251 1226.08 260.493C1250.24 233.401 1282.26 221.254 1317.86 219.231Z"/><path fill="#F3F4F6" d="M279.934 121.69C312.177 114.632 362.564 124.16 390.397 141.845C392.097 142.933 393.763 144.074 395.392 145.265L410.241 155.744C415.346 159.32 425.579 165.312 427.896 170.511C435.14 178.786 439.19 182.703 445.78 191.762C450.128 196.878 453.764 202.559 456.59 208.65C466.94 227.763 474.708 250.589 475.048 272.497C476.089 277.077 476.158 285.757 476.137 290.632C475.995 322.522 468.902 345.62 454.23 373.277C446.689 374.08 432.981 373.457 425.204 373.305C411.038 373.014 396.87 372.87 382.702 372.872C405.528 347.075 418.017 320.274 418.344 286.334C419.09 209.117 334.244 155.603 264.716 187.852C248.41 195.415 239.029 203.445 226.542 216.093C226.316 205.888 226.407 195.392 226.375 185.162C225.369 179.073 225.839 149.632 225.792 141.209C230.566 138.808 236.452 136.441 241.424 134.295C249.032 128.994 270.899 121.767 279.934 121.69Z"/><path fill="#FFFFFF" d="M1502.32 222.779L1525.6 222.778L1525.45 469.457L1495.38 469.455L1468.22 469.438L1468.19 222.904L1502.32 222.779Z"/><path fill="#FFFFFF" d="M1493.63 115.16C1513.45 113.538 1530.82 128.311 1532.42 148.141C1534.01 167.97 1519.22 185.333 1499.4 186.903C1479.61 188.47 1462.3 173.708 1460.7 153.915C1459.11 134.122 1473.85 116.779 1493.63 115.16Z"/></svg>