<?xml version="1.0" encoding="utf-8" ?><svg xmlns="http://www.w3.org/2000/svg" xmlns:xlink="http://www.w3.org/1999/xlink" width="1792" height="576" viewBox="0 0 1792 576"><path fill="#283342" d="M142.166 63.4373C147.36 45.8943 188.654 37.669 204.93 38.6783C204.475 48.3026 204.493 58.5153 204.645 68.1582C205.778 139.803 203.38 212.027 204.617 283.625C206.899 314.279 214.066 342.424 237.639 364.374C266.612 390.349 299.297 395.774 337.043 395.98C345.611 396.026 361.699 395.068 369.348 395.664C384.651 394.999 520.9 394.717 527.651 397.298L528.805 398.839L528.676 399.425C528.063 416.874 519.273 441.603 508.16 455.084C503.223 459.855 496.412 466.783 491.281 470.962C487.537 475.324 484.64 478.703 480.422 482.687C465.079 499.266 448.214 515.899 432.294 532.1C421.386 543.2 407.969 557.566 396.593 567.823L147.191 567.845L73.7157 567.623C65.5591 567.655 41.1387 568.413 34.1363 567.696C32.082 562.459 32.8888 510.403 32.8919 501.308L33.0849 379.734L33.078 242.519C33.0748 220.635 32.9974 198.375 33.0982 176.458C33.1111 173.65 34.2035 172.169 36.0137 170.081C58.3121 148.465 81.9393 122.723 104.664 102.09C117.293 89.6443 129.823 77.0971 142.251 64.45L142.166 63.4373ZM107.058 492.196C112.711 486.125 119.246 479.858 125.165 473.966C130.82 468.202 139.082 460.21 143.834 454.05C141.776 444.586 142.967 384.835 142.975 370.449L142.762 227.472C142.82 198.991 143.52 171.072 143.199 142.547L109.053 177.233C104.132 182.193 92.6938 193.273 88.6992 198.625C90.2131 212.201 89.1972 242.085 89.0729 256.716L89.1853 340.69L88.994 455.762C88.9799 470.116 89.9575 496.299 89.0545 509.75C93.2477 506.636 102.93 496.38 107.058 492.196ZM168.989 510.885C193.818 511.607 220.253 511.192 245.196 511.189L375.084 511.147C384.343 501.693 396.296 488.514 405.781 480.359C410.085 475.359 416.748 469.01 421.553 464.193L431.222 454.501L289.558 454.545C277.123 454.53 233.296 453.586 222.967 455.175C211.556 468.1 199.718 480.642 187.472 492.78C183.278 496.938 172.269 506.974 168.989 510.885Z"/><defs><linearGradient id="gradient_0" gradientUnits="userSpaceOnUse" x1="284.44711" y1="233.1144" x2="95.772652" y2="324.73892"><stop offset="0" stop-color="#A38045"/><stop offset="1" stop-color="#DFC67C"/></linearGradient></defs><path fill="url(#gradient_0)" d="M142.166 63.4373C147.36 45.8943 188.654 37.669 204.93 38.6783C204.475 48.3026 204.493 58.5153 204.645 68.1582C205.778 139.803 203.38 212.027 204.617 283.625C206.899 314.279 214.066 342.424 237.639 364.374C266.612 390.349 299.297 395.774 337.043 395.98C345.611 396.026 361.699 395.068 369.348 395.664C384.651 394.999 520.9 394.717 527.651 397.298L528.805 398.839L528.676 399.425C528.063 416.874 519.273 441.603 508.16 455.084C495.399 453.054 446.518 454.34 431.222 454.501L289.558 454.545C277.123 454.53 233.296 453.586 222.967 455.175C201.102 453.318 167.791 454.33 145.186 454.391L143.834 454.05C141.776 444.586 142.967 384.835 142.975 370.449L142.762 227.472C142.82 198.991 143.52 171.072 143.199 142.547L143.255 140.161C144.253 132.83 143.751 68.0655 142.251 64.45L142.166 63.4373Z"/><defs><linearGradient id="gradient_1" gradientUnits="userSpaceOnUse" x1="330.79108" y1="435.38815" x2="518.92999" y2="414.6004"><stop offset="0" stop-color="#8A6A2E"/><stop offset="1" stop-color="#B99858"/></linearGradient></defs><path fill="url(#gradient_1)" d="M237.639 364.374C266.612 390.349 299.297 395.774 337.043 395.98C345.611 396.026 361.699 395.068 369.348 395.664C384.651 394.999 520.9 394.717 527.651 397.298L528.805 398.839L528.676 399.425C527.623 399.682 525.638 400.09 524.739 400.508L520.96 404.528C516.325 422.753 513.718 430.14 503.86 446.144L425.563 446.534C421.397 446.552 395.978 446.864 393.181 446.337C384.025 443.513 342.837 444.496 330.611 444.561C335.313 437.262 333.454 418.228 331.74 409.772C331.74 409.772 333.262 407.05 333.402 406.799L333.769 406.109C326.961 403.193 293.908 407.46 283.756 400.58C286.287 398.379 287.234 397.722 288.623 394.59C262.129 388.248 258.651 384.966 237.5 368.622L237.639 364.374Z"/><path fill="#E9D9A1" d="M237.639 364.374C266.612 390.349 299.297 395.774 337.043 395.98C345.611 396.026 361.699 395.068 369.348 395.664C384.651 394.999 520.9 394.717 527.651 397.298L528.805 398.839L528.676 399.425C527.623 399.682 525.638 400.09 524.739 400.508L520.96 404.528C504.236 406.193 482.717 405.652 465.566 405.368C421.636 404.638 377.62 406.239 333.769 406.109C326.961 403.193 293.908 407.46 283.756 400.58C286.287 398.379 287.234 397.722 288.623 394.59C262.129 388.248 258.651 384.966 237.5 368.622L237.639 364.374Z"/><path fill="#AA8A50" d="M369.348 395.664C384.651 394.999 520.9 394.717 527.651 397.298L528.805 398.839L528.676 399.425C527.623 399.682 525.638 400.09 524.739 400.508L423.267 400.298C407.408 400.24 392.664 402.094 377.247 399.334C374.313 397.753 366.176 397.063 362.637 396.976C364.869 396.511 367.106 396.073 369.348 395.664Z"/><path fill="#B59660" d="M237.639 364.374C266.612 390.349 299.297 395.774 337.043 395.98C345.611 396.026 361.699 395.068 369.348 395.664C367.106 396.073 364.869 396.511 362.637 396.976C366.176 397.063 374.313 397.753 377.247 399.334C345.289 398.734 320.093 401.484 288.623 394.59C262.129 388.248 258.651 384.966 237.5 368.622L237.639 364.374Z"/><path fill="#8A6C33" d="M144.778 62.9333L151.72 66.7594C152.787 75.1239 152.383 91.4506 152.366 100.509L152.229 158.096L151.837 337.484C151.601 369.244 149.663 415.098 151.735 445.543C186.537 445.267 221.34 445.17 256.142 445.251C280.186 445.474 303.009 446.574 327.293 446.436L327.633 444.94L330.611 444.561C342.837 444.496 384.025 443.513 393.181 446.337C395.978 446.864 421.397 446.552 425.563 446.534L503.86 446.144C513.718 430.14 516.325 422.753 520.96 404.528L524.739 400.508C525.638 400.09 527.623 399.682 528.676 399.425C528.063 416.874 519.273 441.603 508.16 455.084C495.399 453.054 446.518 454.34 431.222 454.501L289.558 454.545C277.123 454.53 233.296 453.586 222.967 455.175C201.102 453.318 167.791 454.33 145.186 454.391L143.834 454.05C141.776 444.586 142.967 384.835 142.975 370.449L142.762 227.472C142.82 198.991 143.52 171.072 143.199 142.547L143.255 140.161C144.253 132.83 143.751 68.0655 142.251 64.45L142.166 63.4373L144.778 62.9333Z"/><path fill="#B59660" d="M330.611 444.561C342.837 444.496 384.025 443.513 393.181 446.337L327.293 446.436L327.633 444.94L330.611 444.561Z"/><path fill="#8A6C33" d="M204.93 38.6783C204.475 48.3026 204.493 58.5153 204.645 68.1582C205.778 139.803 203.38 212.027 204.617 283.625C202.01 286.913 203.237 286.193 199.716 287.376L199.53 282.726C198.072 280.191 197.003 277.86 196.879 274.898C196.039 254.825 196.702 233.951 196.75 213.816L196.904 108.04C196.935 88.8001 197.509 66.2591 196.724 47.3897C197.265 42.6214 200.01 42.7602 203.942 41.6645L204.93 38.6783Z"/><path fill="#EFE3B1" d="M215.563 370.386C210.107 364.812 195.412 367.183 193.77 365.036C187.433 356.747 201.99 345.141 200.919 332.832L202.306 333.588C206.389 341.534 204.702 349.463 203.47 357.951C206.838 361.331 210.481 364.086 214.219 367.027C219.568 365.7 220.688 365.641 226.183 366.122C226.628 363.941 226.248 363.921 227.608 362.772C230.871 363.423 234.683 366.589 237.5 368.622C258.651 384.966 262.129 388.248 288.623 394.59C287.234 397.722 286.287 398.379 283.756 400.58C279.172 397.953 260.7 391.793 255.039 389.81C246.116 385.622 237.945 379.334 229.9 373.587C221.587 367.648 219.62 375.707 215.563 370.386Z"/><path fill="#8A6C33" d="M327.633 444.94C317.773 435.05 329.135 432.169 316.37 424.51C316.87 422.164 320.179 420.701 320.245 420.183C321.189 412.826 325.807 407.763 333.402 406.799C333.262 407.05 331.74 409.772 331.74 409.772C333.454 418.228 335.313 437.262 330.611 444.561L327.633 444.94Z"/><path fill="#B59660" d="M142.166 63.4373C147.36 45.8943 188.654 37.669 204.93 38.6783L203.942 41.6645C200.01 42.7602 197.265 42.6214 196.724 47.3897C192.722 52.4472 190.491 51.5117 184.806 50.4635C179.47 46.5286 172.004 48.0639 166 49.467C159.024 53.0531 150.014 57.1767 144.778 62.9333L142.166 63.4373Z"/><path fill="#CEB574" d="M215.563 370.386C219.62 375.707 221.587 367.648 229.9 373.587C237.945 379.334 246.116 385.622 255.039 389.81C243.963 396.945 235.26 384.422 225.711 381.128C224.588 380.74 222.309 382.477 221.204 383.166C219.166 381.804 217.893 378.326 216.785 375.985L215.983 375.847L214.596 373.75L215.563 370.386Z"/><path fill="#CEB574" d="M144.778 62.9333C150.014 57.1767 159.024 53.0531 166 49.467C164.874 52.0967 163.503 54.4441 164.15 57.2038L165.199 58.3571C160.368 61.8494 156.849 63.8657 151.72 66.7594L144.778 62.9333Z"/><path fill="#E9D9A1" d="M166 49.467C172.004 48.0639 179.47 46.5286 184.806 50.4635C177.157 53.0032 172.531 54.9643 165.199 58.3571L164.15 57.2038C163.503 54.4441 164.874 52.0967 166 49.467Z"/><path fill="#E9D9A1" d="M197.705 314.289C200.128 310.582 200.258 310.815 204.199 311.873C206.094 319.466 208.987 328.268 212.242 335.388L208.651 337.083C207.866 329.346 201.834 320.915 197.705 314.289Z"/><path fill="#CEB574" d="M199.53 282.726L199.716 287.376C201.973 296.578 200.602 301.397 204.199 311.873C200.258 310.815 200.128 310.582 197.705 314.289C197.852 305.159 196.033 290.442 199.53 282.726Z"/><path fill="#CEB574" d="M212.242 335.388C213.99 338.681 216.541 342.589 216.383 346.157L215.494 347.43C210.683 345.879 208.815 341.774 208.651 337.083L212.242 335.388Z"/><path fill="#161F2D" d="M394.308 561.072C411.911 544.068 428.335 525.167 446.088 508.216C454.646 500.044 462.505 491.006 472.244 484.152C475.441 481.902 476.593 481.961 480.422 482.687C465.079 499.266 448.214 515.899 432.294 532.1C421.386 543.2 407.969 557.566 396.593 567.823L147.191 567.845L73.7157 567.623C65.5591 567.655 41.1387 568.413 34.1363 567.696C36.0255 564.449 37.2334 562.305 41.098 562.092C81.8776 559.84 124.751 561.127 165.56 561.136L394.308 561.072Z"/><defs><linearGradient id="gradient_2" gradientUnits="userSpaceOnUse" x1="279.84381" y1="486.30838" x2="291.64456" y2="537.53143"><stop offset="0" stop-color="#4D5C69"/><stop offset="1" stop-color="#5F7287"/></linearGradient></defs><path fill="url(#gradient_2)" d="M375.084 511.147C384.343 501.693 396.296 488.514 405.781 480.359C408.831 481.644 409.476 481.709 412.791 481.66L413.352 483.448C402.99 495.278 388.88 508.805 377.485 519.947L205.944 520.246C199.108 520.207 158.939 520.367 153.908 519.028L153.66 518.139L155.641 517.143C160.91 515.372 167.104 511.386 168.989 510.885C193.818 511.607 220.253 511.192 245.196 511.189L375.084 511.147Z"/><path fill="#161F2D" d="M145.186 454.391C167.791 454.33 201.102 453.318 222.967 455.175C211.556 468.1 199.718 480.642 187.472 492.78C183.278 496.938 172.269 506.974 168.989 510.885C167.104 511.386 160.91 515.372 155.641 517.143C155.291 516.461 155.344 515.606 155.309 514.813C166.235 500.974 196.937 472.023 210.493 458.6C196.497 458.759 159.918 457.173 148.801 458.382L145.186 454.391Z"/><path fill="#4F6071" d="M36.0137 170.081C58.3121 148.465 81.9393 122.723 104.664 102.09L108.017 104.67C107.685 109.891 51.8859 164.293 43.3976 170.5C42.3965 171.232 37.8464 170.395 36.0137 170.081Z"/><path fill="#161F2D" d="M88.6992 198.625C86.7656 198.253 86.1725 197.841 84.4637 196.912C84.0266 195.817 83.4016 194.215 84.3949 193.216C99.4149 178.096 124.132 147.75 143.255 140.161L143.199 142.547L109.053 177.233C104.132 182.193 92.6938 193.273 88.6992 198.625Z"/><path fill="#4F6071" d="M431.222 454.501C446.518 454.34 495.399 453.054 508.16 455.084C503.223 459.855 496.412 466.783 491.281 470.962C493.341 465.876 495.201 463.781 498.725 459.612C479.72 458.227 457.959 456.933 439.055 458.321L428.72 469.082L427.646 468.222L427.446 467.082C425.5 464.806 424.71 465.133 421.553 464.193L431.222 454.501Z"/><path fill="#3B4A5A" d="M107.058 492.196C107.749 493.914 109.336 498.172 110.161 499.587C101.932 508.861 89.3362 520.072 79.9272 528.618C81.7688 524.528 86.7939 512.746 89.0545 509.75C93.2477 506.636 102.93 496.38 107.058 492.196Z"/><path fill="#4F6071" d="M125.165 473.966C127.212 475.311 129.585 476.963 131.695 478.137C125.068 484.968 117.218 493.46 110.161 499.587C109.336 498.172 107.749 493.914 107.058 492.196C112.711 486.125 119.246 479.858 125.165 473.966Z"/><path fill="#3B4A5A" d="M143.834 454.05L145.186 454.391L148.801 458.382C145.543 465.424 137.371 472.695 131.695 478.137C129.585 476.963 127.212 475.311 125.165 473.966C130.82 468.202 139.082 460.21 143.834 454.05Z"/><path fill="#283342" d="M405.781 480.359C410.085 475.359 416.748 469.01 421.553 464.193C424.71 465.133 425.5 464.806 427.446 467.082L427.646 468.222C424.531 470.567 413.228 478.17 412.791 481.66C409.476 481.709 408.831 481.644 405.781 480.359Z"/><path fill="#3B4A5A" d="M427.646 468.222L428.72 469.082C423.734 474.218 418.056 478.406 413.352 483.448L412.791 481.66C413.228 478.17 424.531 470.567 427.646 468.222Z"/><path fill="#283342" d="M909.293 222.611L967.409 222.473L966.98 308.983C966.856 330.177 966.018 350.199 968.634 371.098C972.845 410.045 1002.5 428.065 1040.17 420.739C1098.43 409.41 1089.89 346.602 1089.79 303.242L1089.98 223.116C1106.37 221.895 1130.94 222.62 1147.93 222.62L1147.9 301.568L1147.94 469.42C1130.38 469.073 1112.15 469.29 1094.54 469.266L1094.51 439.264C1070.06 463.086 1049.54 473.15 1014.73 473.575C986.05 473.925 959.48 466.293 938.296 445.927C903.551 412.523 909.037 353.488 909.195 308.286L909.293 222.611Z"/><path fill="#283342" d="M1675.3 219.225C1709.88 216.009 1744.97 225.598 1775.24 241.846C1768.84 256.406 1761.31 271.032 1754.17 285.265C1731.83 275.155 1710.81 266.708 1685.95 266.21C1670.11 265.892 1650.2 267.466 1638.31 279.008C1634.12 283.077 1629.67 288.806 1629.66 294.924C1629.63 326.698 1735.92 322.599 1757.92 345.385C1767.95 355.775 1776.39 382.992 1776.19 397.058C1775.92 415.895 1768.61 432.916 1755.13 446.028C1730.34 470.156 1695.25 473.899 1662.44 473.489C1631.7 473.469 1592.78 461.685 1567.29 444.195C1574.43 429.617 1581.67 415.085 1588.99 400.599C1616.31 417.122 1681.45 443.057 1713.28 413.146C1716.81 409.827 1719.22 404.972 1718.7 399.971C1715.45 368.964 1665.16 371.378 1642.59 364.591C1625.35 359.816 1607.69 355.506 1593.26 343.13C1581.66 333.248 1574.52 319.114 1573.46 303.911C1568.85 243.713 1626.55 222.899 1675.3 219.225Z"/><path fill="#283342" d="M653.544 143.189C672.4 142.553 693.963 143.03 713.031 142.998L713.05 418.334L877.47 418.333L877.335 469.039C873.328 470.67 673.805 469.593 653.414 469.601L653.544 143.189Z"/><path fill="#283342" d="M1318.42 219.219C1365.16 217.949 1403.1 236.791 1427.08 277.017C1411.93 285.407 1396.94 294.594 1381.69 303.122C1366.93 272.877 1344.25 264.201 1311.78 269.983C1293.01 273.237 1276.35 283.939 1265.58 299.66C1253.41 317.275 1248.82 339.046 1252.86 360.078C1263.62 417.358 1327.62 445.788 1374.59 405.684C1379.24 401.708 1383.56 395.005 1387.04 389.824L1388.34 388.153C1395.01 386.666 1415.62 407.563 1420.66 412.509C1413.17 457.857 1382.07 469.46 1340.69 473.248C1265.36 480.146 1200.05 433.78 1194.13 355.838C1191.5 321.717 1202.53 287.949 1224.81 261.974C1249.64 233.139 1281.46 221.937 1318.42 219.219Z"/><path fill="#8A6C33" d="M225.477 142.23C229.544 138.815 235.287 136.19 240.074 133.834C264.785 121.668 292.343 117.407 319.688 119.805C343.158 121.863 372.935 130.43 392.889 143.269C417.315 158.849 428.534 167.963 445.781 191.344C459.589 209.13 473.212 242.226 474.594 264.631C478.418 308.904 475.059 333.828 453.997 373.577C433.475 374.707 404.192 372.945 382.515 372.87C403.735 348.922 417.039 322.247 418.104 289.865C419.093 261.549 408.645 234.027 389.116 213.507C368.845 192.101 341.01 179.474 311.558 178.326C275.112 177.233 251.923 191.847 226.568 215.717C226.351 201.436 226.216 187.155 226.162 172.872C226.154 163.844 226.583 150.922 225.477 142.23Z"/><defs><linearGradient id="gradient_3" gradientUnits="userSpaceOnUse" x1="332.04419" y1="126.99666" x2="407.9006" y2="226.85396"><stop offset="0" stop-color="#DAC582"/><stop offset="1" stop-color="#FCF3BC"/></linearGradient></defs><path fill="url(#gradient_3)" d="M225.477 142.23C229.544 138.815 235.287 136.19 240.074 133.834C264.785 121.668 292.343 117.407 319.688 119.805C343.158 121.863 372.935 130.43 392.889 143.269C417.315 158.849 428.534 167.963 445.781 191.344C443.293 194.16 441.011 196.64 438.888 199.756C419.076 203.864 422.675 204.757 408.964 218.03C411.279 222.179 412.756 223.963 411.639 228.686C408.962 224.68 406.468 221.747 403.314 218.287C369.426 181.114 348.885 173.956 300.939 171.521C300.929 167.149 300.787 163.655 301.626 159.35C300.025 155.079 302.5 153.049 300.649 147.568C298.81 145.018 295.182 143.794 292.224 142.464C292.316 137.061 293.818 133.111 288.882 130.652C266.49 135.144 255.456 138.061 234.554 148.437C231.403 146.141 230.156 146.275 226.492 144.896L225.477 142.23Z"/><path fill="#EFE3B1" d="M225.477 142.23C229.544 138.815 235.287 136.19 240.074 133.834C264.785 121.668 292.343 117.407 319.688 119.805C343.158 121.863 372.935 130.43 392.889 143.269C388.789 145.706 387.602 149.668 382.365 147.809C361.358 140.351 349.813 133.13 327.088 129.909C322.125 128.797 293.303 129.192 288.882 130.652C266.49 135.144 255.456 138.061 234.554 148.437C231.403 146.141 230.156 146.275 226.492 144.896L225.477 142.23Z"/><path fill="#E9D9A1" d="M288.882 130.652C293.303 129.192 322.125 128.797 327.088 129.909C324.264 131.864 324.628 132.543 323.859 136.788C323.765 137.307 323.673 137.828 323.584 138.348C318.092 143.083 312.404 147.428 307.045 152.257C304.832 154.252 303.215 157.751 301.626 159.35C300.025 155.079 302.5 153.049 300.649 147.568C298.81 145.018 295.182 143.794 292.224 142.464C292.316 137.061 293.818 133.111 288.882 130.652Z"/><defs><linearGradient id="gradient_4" gradientUnits="userSpaceOnUse" x1="431.24017" y1="365.73099" x2="439.04019" y2="268.50824"><stop offset="0" stop-color="#9F7D40"/><stop offset="1" stop-color="#CCB273"/></linearGradient></defs><path fill="url(#gradient_4)" d="M426.018 270.095C435.389 269.437 459.653 269.046 468.496 272.058C469.935 274.25 469.767 278.345 470.008 281.358C469.306 317.407 465.168 332.047 450.554 364.954L398.602 365.017C420.505 332.793 430.695 310.956 426.018 270.095Z"/><defs><linearGradient id="gradient_5" gradientUnits="userSpaceOnUse" x1="441.50192" y1="271.03979" x2="442.4465" y2="194.29826"><stop offset="0" stop-color="#CBB071"/><stop offset="1" stop-color="#EEDC9F"/></linearGradient></defs><path fill="url(#gradient_5)" d="M445.781 191.344C459.589 209.13 473.212 242.226 474.594 264.631C474.633 269.765 473.23 266.017 474.053 269.688L472.106 267.571L471.12 267.609C470.334 272.357 470.817 277.648 470.008 281.358C469.767 278.345 469.935 274.25 468.496 272.058C459.653 269.046 435.389 269.437 426.018 270.095C423.152 250.659 419.853 245.56 411.639 228.686C412.756 223.963 411.279 222.179 408.964 218.03C422.675 204.757 419.076 203.864 438.888 199.756C441.011 196.64 443.293 194.16 445.781 191.344Z"/><defs><linearGradient id="gradient_6" gradientUnits="userSpaceOnUse" x1="234.38248" y1="152.05128" x2="295.85089" y2="177.91054"><stop offset="0" stop-color="#AC8E54"/><stop offset="1" stop-color="#C9B173"/></linearGradient></defs><path fill="url(#gradient_6)" d="M288.882 130.652C293.818 133.111 292.316 137.061 292.224 142.464C295.182 143.794 298.81 145.018 300.649 147.568C302.5 153.049 300.025 155.079 301.626 159.35C300.787 163.655 300.929 167.149 300.939 171.521C278.746 172.796 250.286 183.654 233.496 198.81C233.2 187.015 232.631 158.895 234.554 148.437C255.456 138.061 266.49 135.144 288.882 130.652Z"/><path fill="#283342" d="M1471.37 222.709C1489.2 222.382 1507.71 222.617 1525.59 222.603C1525.23 241.437 1526.22 465.878 1524.48 469.165L1522.72 469.348L1468.39 469.301L1468.3 295.847L1468.29 246.647C1468.29 242.305 1468.02 226.998 1468.63 223.467L1471.37 222.709Z"/><path fill="#283342" d="M1488.02 116.051C1507.41 111.33 1526.93 123.327 1531.48 142.763C1536.03 162.199 1523.87 181.621 1504.41 186.007C1485.18 190.339 1466.05 178.354 1461.55 159.153C1457.06 139.952 1468.87 120.715 1488.02 116.051Z"/></svg>