<?xml version="1.0" encoding="utf-8" ?><svg xmlns="http://www.w3.org/2000/svg" xmlns:xlink="http://www.w3.org/1999/xlink" width="4096" height="4096" viewBox="0 0 4096 4096"><defs><linearGradient id="gradient_0" gradientUnits="userSpaceOnUse" x1="866.48785" y1="2009.1152" x2="1083.6799" y2="2022.9205"><stop offset="0" stop-color="#123150"/><stop offset="1" stop-color="#365B82"/></linearGradient></defs><path fill="url(#gradient_0)" d="M988.691 1664.69L991.178 1665.44C997.077 1673.29 995.136 1744.4 995.224 1760.23L996.369 2054.66C996.044 2175.99 973.907 2287.79 1082.98 2368.61C1078.38 2387.23 997.998 2359.88 983.863 2353.87C913.34 2319.29 871.516 2263.94 869.985 2184.29C867.656 2063.08 868.148 1938.51 871.399 1817.33C873.429 1741.68 921.025 1691.56 988.691 1664.69Z"/><path fill="#F1B15C" d="M1166.1 1784.88C1316.09 1774.32 1440.03 1852.72 1481.62 1999.58C1502.82 2076.59 1492.4 2158.87 1452.68 2228.17C1415.57 2292.99 1354.43 2340.61 1282.48 2360.71C1232.74 2374.24 1153.29 2377.89 1107.6 2349.89C1065.31 2323.97 1042.46 2282.11 1030.14 2235.79C1045.64 2244.83 1060.55 2255.06 1075.49 2265.01C1224.49 2356 1402.35 2274.89 1421.98 2099.29C1436.57 1968.8 1346.5 1862.24 1216.81 1851.59C1137.61 1845.09 1084.4 1872.22 1025.38 1922.14C1023.99 1896.85 1024.08 1861.5 1025.05 1836.32C1068.82 1800.21 1111.5 1793.15 1166.1 1784.88Z"/><path fill="#183756" d="M1934.75 1973.82C1941.99 1968.48 2008.94 1969.15 2017.62 1973.81C2020.35 1979.56 2019.56 1982.6 2019.18 1988.95L2018.7 2114.63C2018.55 2150.66 2016.85 2183.48 2023.81 2218.98C2043.19 2317.81 2179.11 2314.66 2199.78 2219.23C2207.02 2185.8 2204.61 2146.14 2204.53 2111.78L2204.1 1971.68C2231.32 1971.53 2258.53 1971.67 2285.75 1972.12C2286.14 1983.85 2286.04 1998.92 2285.52 2010.62C2282.13 2086.04 2293.78 2175.86 2275.84 2248.48C2238.95 2397.79 1997.36 2399.38 1947.35 2258.29C1931.16 2212.61 1935.07 2155.93 1935.02 2107.45L1934.75 1973.82Z"/><defs><linearGradient id="gradient_1" gradientUnits="userSpaceOnUse" x1="1980.8246" y1="1978.645" x2="1972.9016" y2="2149.2493"><stop offset="0" stop-color="#2A4B71"/><stop offset="1" stop-color="#4A709B"/></linearGradient></defs><path fill="url(#gradient_1)" d="M1934.75 1973.82C1941.99 1968.48 2008.94 1969.15 2017.62 1973.81C2020.35 1979.56 2019.56 1982.6 2019.18 1988.95C2011.88 2038.48 2015.38 2092.77 2015.82 2143.18L1999.73 2154.8C1979.26 2151.46 1960.96 2154.18 1944.57 2151C1937.05 2143.26 1937.96 2124.22 1937.59 2113.86C1935.98 2069.11 1943.17 2017.45 1934.75 1973.82Z"/><path fill="#183756" d="M3081.85 1966.83C3110.89 1960.72 3200.13 1976.44 3223.91 1993.72C3226.31 2005.46 3210.63 2044.37 3205.92 2057.65C3162.2 2035.84 3083.74 2016.73 3037.43 2049.21C3031.46 2053.39 3019.58 2073.92 3021.64 2081.39C3036.2 2134.11 3128.74 2129.77 3170.2 2149.55C3189.3 2156.26 3204.57 2164.64 3219.69 2178.47C3259.25 2214.62 3249.93 2286.84 3212.9 2321.92C3177.75 2355.23 3119.43 2364.46 3072.07 2363.38C3016.64 2355.73 2985.74 2348.48 2937.21 2319.71C2946.7 2301.54 2955.96 2279.58 2964.77 2260.63C3011.48 2282.05 3110.64 2322.86 3153.97 2274.16C3195.52 2228.18 3107.96 2206.64 3077.12 2198.93C3024 2185.65 2944.16 2166.38 2940.53 2097.8C2935.77 2007.74 3000.95 1971.42 3081.85 1966.83Z"/><path fill="#183756" d="M2540.24 1964.74C2604.71 1960.62 2672.88 1978.67 2714.71 2030.82C2696.73 2046.2 2678.87 2061.7 2661.12 2077.34C2579.71 1996.03 2448.99 2040.11 2439.2 2156.16C2431.65 2245.68 2526.08 2319.07 2609.94 2282.85C2630.46 2273.98 2643.05 2264.22 2659.76 2249.35L2662.93 2248.89C2672.71 2252.25 2704.93 2285.11 2711.82 2295.95C2711.49 2299.99 2711.54 2303.15 2708.11 2306.28C2632.13 2375.6 2515.62 2380.88 2433.95 2321.49C2392.15 2291.57 2364.43 2245.82 2357.26 2194.91C2338.37 2067.33 2417.06 1982.26 2540.24 1964.74Z"/><path fill="#183756" d="M1615.42 1972.62C1638.15 1971.24 1673.69 1972.2 1696.84 1972.76L1696.6 2173.45C1696.55 2189.22 1694 2278.86 1699.72 2288.1C1720.72 2285.31 1883.77 2284.62 1893.43 2291.2C1892.69 2311.14 1893.09 2334.5 1892.95 2354.7C1881.06 2355.11 1868.03 2354.68 1856.07 2354.6C1775.93 2354.06 1694.9 2357.33 1614.86 2355.17C1613.02 2331.72 1614.14 2302.49 1614.38 2278.43C1615.4 2176.84 1612.73 2074.09 1615.42 1972.62Z"/><path fill="#0F2A47" d="M1699.72 2288.1C1720.72 2285.31 1883.77 2284.62 1893.43 2291.2C1869.2 2296.45 1831.6 2290.91 1806.03 2292.72C1769.02 2295.34 1736.17 2299.19 1699.72 2288.1Z"/><path fill="#183756" d="M2780.6 1972.3C2808.79 1972.03 2836.99 1972.18 2865.17 1972.75C2866.9 2011.12 2865.12 2064.03 2864.96 2103.1L2864.38 2352.23C2855.52 2356.07 2796.13 2354.65 2781.36 2354.79C2778.81 2336.75 2780.2 2242.65 2780.52 2220.74C2781.73 2138.5 2779.19 2054.13 2780.6 1972.3Z"/><defs><linearGradient id="gradient_2" gradientUnits="userSpaceOnUse" x1="1114.6078" y1="1894.1718" x2="1224.0522" y2="2005.656"><stop offset="0" stop-color="#0D2A45"/><stop offset="1" stop-color="#315373"/></linearGradient></defs><path fill="url(#gradient_2)" d="M1187.49 1878.7C1199.54 1877.51 1208.03 1875.32 1218.54 1881.42C1232.66 1900.19 1249.32 1980.01 1254.47 2005.77C1241.78 2002.79 1220.43 1994.59 1207 1990.5C1186.47 1984.25 1172.35 1981.21 1151.48 1977.23C1120.93 1972.54 1078.98 1964.26 1050.54 1953.48C1053.35 1948.66 1056.47 1944.02 1059.89 1939.6C1087.12 1904.66 1145.01 1884.06 1187.49 1878.7Z"/><defs><linearGradient id="gradient_3" gradientUnits="userSpaceOnUse" x1="1394.5999" y1="2111.5791" x2="1307.1223" y2="2052.3428"><stop offset="0" stop-color="#122D47"/><stop offset="1" stop-color="#2F5077"/></linearGradient></defs><path fill="url(#gradient_3)" d="M1359.38 1960.59C1393.39 2011.43 1406.98 2095.34 1381.71 2152.21C1365.7 2152.06 1263.55 2144.44 1256.51 2137.52C1259.03 2131.66 1259.75 2131.44 1263.88 2126.83C1272.5 2117.21 1279.77 2102.97 1285.78 2091.4C1295.33 2082.86 1299.41 2082.57 1308.18 2071.65C1307.18 2062.53 1307.36 2062.95 1303.01 2054.92C1309.46 2050.29 1307.47 2053.28 1309.41 2045.8C1336.93 2017.96 1346.45 1998.06 1359.38 1960.59Z"/><defs><linearGradient id="gradient_4" gradientUnits="userSpaceOnUse" x1="1309.1107" y1="2234.2661" x2="1208.108" y2="2138.5583"><stop offset="0" stop-color="#142F4C"/><stop offset="1" stop-color="#2D4E73"/></linearGradient></defs><path fill="url(#gradient_4)" d="M1172.27 2155.54C1181.55 2155.89 1193.48 2158.2 1202.91 2159.49C1259.99 2167.24 1315.49 2168.7 1372.96 2167.91C1372.59 2168.66 1372.21 2169.41 1371.83 2170.17C1360.68 2193.09 1344.79 2213.38 1325.2 2229.7C1316.03 2237.98 1305.85 2245.09 1294.91 2250.84C1278.7 2259.44 1243.89 2274.73 1225.91 2269.23C1212.38 2258.61 1177.43 2175.03 1172.27 2155.54Z"/><path fill="#183756" d="M1108.53 2090.92C1117.3 2098.34 1194.16 2257.74 1194.76 2271.37C1184.2 2276.54 1152.31 2267.8 1140.47 2264.67C1098.03 2248.22 1069.73 2224.35 1041.06 2188.71C1070.77 2151.31 1083.36 2129.86 1108.53 2090.92Z"/><path fill="#183756" d="M1030.84 1975.18C1047.46 1974.83 1145.68 1989.51 1151.02 2000.67C1143.61 2014.04 1132.35 2027.32 1123.08 2039.83C1109.02 2059.19 1095.05 2078.63 1081.19 2098.14C1073.45 2108.85 1037.56 2161.8 1028.45 2164.06L1026.25 2161.54C1022.77 2146.74 1026.89 1988.93 1030.84 1975.18Z"/><path fill="#183756" d="M1242.63 1883C1283.55 1893.7 1305.22 1908.96 1336.31 1937.23C1339.86 1941.5 1343.85 1944.52 1342.53 1949.86C1335.04 1980.2 1298.36 2012.94 1309.41 2045.8C1307.47 2053.28 1309.46 2050.29 1303.01 2054.92C1307.36 2062.95 1307.18 2062.53 1308.18 2071.65C1299.41 2082.57 1295.33 2082.86 1285.78 2091.4C1288.94 2079.45 1286.93 2069.46 1285.21 2057.53C1270.81 1990.82 1260.53 1948.82 1242.63 1883Z"/><path fill="#2F5077" d="M1336.31 1937.23C1339.86 1941.5 1343.85 1944.52 1342.53 1949.86C1335.04 1980.2 1298.36 2012.94 1309.41 2045.8C1307.47 2053.28 1309.46 2050.29 1303.01 2054.92C1301.79 2053.63 1297.67 2049.23 1297.25 2047.71C1290.77 2024.28 1315.29 1945.55 1336.31 1937.23Z"/><path fill="#0F2A47" d="M1285.21 2057.53C1287.47 2051.43 1286 2053.32 1290.38 2049.01C1293.9 2049.95 1304.13 2066.38 1308.18 2071.65C1299.41 2082.57 1295.33 2082.86 1285.78 2091.4C1288.94 2079.45 1286.93 2069.46 1285.21 2057.53Z"/><path fill="#F1B15C" fill-opacity="0.92941177" d="M1490.22 1495.5C1497.35 1500.94 1495.58 1497.59 1497.24 1504.98C1492.64 1520.22 1460.74 1578.07 1451.1 1595.35C1419.25 1652.44 1387.3 1717.14 1352.24 1771.76L1347.71 1770.3C1346.46 1765.34 1346.36 1764.27 1348.99 1759.32C1395.3 1672.14 1441.57 1581.18 1490.22 1495.5Z"/><path fill="#F1B15C" fill-opacity="0.93333334" d="M1592.22 1663.28C1596.84 1664.37 1594.77 1663.23 1598.27 1666.99C1598.2 1667.72 1598.21 1668.46 1598.06 1669.17C1593.97 1688.22 1445.99 1804.19 1421.2 1819.95L1415.93 1819.32L1413.5 1816.18C1416.96 1808.9 1569.94 1682.36 1592.22 1663.28Z"/><path fill="#F1B15C" fill-opacity="0.92941177" d="M1697.69 1797.67L1702.04 1800.37L1702.13 1803.84C1690.83 1815.6 1504.91 1881.24 1480.11 1887.08L1475.27 1884.89L1474.34 1881.29C1483.8 1868.65 1667.27 1810.57 1697.69 1797.67Z"/><path fill="#F1B15C" fill-opacity="0.92941177" d="M1151.76 1508.8C1155.39 1510.39 1154.94 1510.45 1158.13 1513.01C1165.57 1530.46 1186.3 1723.39 1183.25 1739.97L1177.94 1736.15C1165.87 1708.23 1148.69 1543.46 1151.76 1508.8Z"/><path fill="#F1B15C" fill-opacity="0.9254902" d="M1293.45 1564.67L1300.31 1567.47C1305.06 1574.94 1299.73 1598.88 1298.08 1608.13C1289.73 1654.67 1280.17 1700.98 1271.85 1747.53C1267.6 1747.89 1269.27 1748.06 1265.19 1746.1C1261.9 1737.7 1288.46 1576.14 1293.45 1564.67Z"/></svg>